{
	"asset":{
		"generator":"Khronos glTF Blender I/O v4.0.43",
		"version":"2.0"
	},
	"scene":0,
	"scenes":[
		{
			"name":"Scene",
			"nodes":[
				0
			]
		}
	],
	"nodes":[
		{
			"mesh":0,
			"name":"Group61487",
			"rotation":[
				0.70710688829422,
				0,
				0,
				0.7071066498756409
			],
			"scale":[
				0.029987506568431854,
				0.029987506568431854,
				0.029987506568431854
			],
			"translation":[
				0,
				-2.3095290660858154,
				0
			]
		}
	],
	"materials":[
		{
			"doubleSided":true,
			"name":"Material.001",
			"pbrMetallicRoughness":{}
		}
	],
	"meshes":[
		{
			"name":"Group61487",
			"primitives":[
				{
					"attributes":{
						"POSITION":0,
						"NORMAL":1,
						"TEXCOORD_0":2
					},
					"indices":3,
					"material":0
				}
			]
		}
	],
	"accessors":[
		{
			"bufferView":0,
			"componentType":5126,
			"count":15132,
			"max":[
				88.76740264892578,
				18.43526840209961,
				2.5416259765625
			],
			"min":[
				-72.00203704833984,
				-29.598613739013672,
				-184.01296997070312
			],
			"type":"VEC3"
		},
		{
			"bufferView":1,
			"componentType":5126,
			"count":15132,
			"type":"VEC3"
		},
		{
			"bufferView":2,
			"componentType":5126,
			"count":15132,
			"type":"VEC2"
		},
		{
			"bufferView":3,
			"componentType":5123,
			"count":55629,
			"type":"SCALAR"
		}
	],
	"bufferViews":[
		{
			"buffer":0,
			"byteLength":181584,
			"byteOffset":0,
			"target":34962
		},
		{
			"buffer":0,
			"byteLength":181584,
			"byteOffset":181584,
			"target":34962
		},
		{
			"buffer":0,
			"byteLength":121056,
			"byteOffset":363168,
			"target":34962
		},
		{
			"buffer":0,
			"byteLength":111258,
			"byteOffset":484224,
			"target":34963
		}
	],
	"buffers":[
		{
			"byteLength":595484,
			"uri":"armor.bin"
		}
	]
}
